<?xml version="1.0" encoding="UTF-8" standalone="no"?>
<!-- Created with Inkscape (http://www.inkscape.org/) -->

<svg
   width="47.862167mm"
   height="53.958237mm"
   viewBox="0 0 47.862167 53.958238"
   version="1.1"
   id="svg5"
   inkscape:version="1.3.1 (9b9bdc1480, 2023-11-25, custom)"
   sodipodi:docname="logo.svg"
   xmlns:inkscape="http://www.inkscape.org/namespaces/inkscape"
   xmlns:sodipodi="http://sodipodi.sourceforge.net/DTD/sodipodi-0.dtd"
   xmlns="http://www.w3.org/2000/svg"
   xmlns:svg="http://www.w3.org/2000/svg">
  <sodipodi:namedview
     id="namedview7"
     pagecolor="#d0d0d0"
     bordercolor="#000000"
     borderopacity="0.25"
     inkscape:showpageshadow="2"
     inkscape:pageopacity="1"
     inkscape:pagecheckerboard="0"
     inkscape:deskcolor="#d1d1d1"
     inkscape:document-units="mm"
     showgrid="false"
     inkscape:zoom="3.1251124"
     inkscape:cx="101.43635"
     inkscape:cy="100.47638"
     inkscape:window-width="1920"
     inkscape:window-height="1011"
     inkscape:window-x="0"
     inkscape:window-y="1112"
     inkscape:window-maximized="1"
     inkscape:current-layer="layer1" />
  <defs
     id="defs2" />
  <g
     inkscape:label="Capa 1"
     inkscape:groupmode="layer"
     id="layer1"
     transform="translate(-78.852162,-78.582654)">
    <g
       id="path234"
       inkscape:transform-center-x="1.610004e-06"
       inkscape:transform-center-y="-1.852597e-06"
       transform="matrix(0.93162411,0,0,0.93162411,15.390106,10.281166)">
      <path
         style="color:#000000;fill:#4b0082;stroke-linecap:round;stroke-linejoin:round;-inkscape-stroke:none"
         d="m 116.89487,115.60327 c -0.39989,0.69263 -22.287796,13.32962 -23.087573,13.32962 -0.799777,0 -22.687683,-12.63699 -23.087572,-13.32962 -0.399888,-0.69262 -0.399888,-25.9666 0,-26.659227 0.399889,-0.692627 22.287795,-13.329615 23.087572,-13.329615 0.799777,0 22.687683,12.636988 23.087573,13.329615 0.39989,0.692627 0.39989,25.966607 0,26.659227 z"
         id="path3" />
      <path
         style="color:#000000;fill:#4b0082;stroke-linecap:round;stroke-linejoin:round;-inkscape-stroke:none"
         d="m 93.806641,73.314453 c -0.782107,0 -0.779442,0.121596 -0.931641,0.177734 -0.152199,0.05614 -0.271814,0.109805 -0.404297,0.169922 -0.264966,0.120235 -0.563645,0.268297 -0.919922,0.451172 -0.712554,0.365751 -1.645864,0.868845 -2.742187,1.472656 -2.192647,1.207623 -5.024514,2.812592 -7.845703,4.441407 -2.82119,1.628814 -5.627377,3.279143 -7.769532,4.574218 -1.071077,0.647538 -1.973457,1.204458 -2.646484,1.638672 -0.336513,0.217107 -0.613,0.400963 -0.849609,0.570313 -0.118305,0.08468 -0.224893,0.161886 -0.34961,0.265625 -0.124717,0.103739 -0.228087,0.04143 -0.61914,0.71875 -0.391053,0.677324 -0.285018,0.734654 -0.3125,0.894531 -0.02748,0.159878 -0.04051,0.290755 -0.05469,0.435547 -0.02836,0.289585 -0.05055,0.621502 -0.07031,1.021484 -0.03953,0.799966 -0.07046,1.859979 -0.0957,3.111328 -0.05049,2.502699 -0.07617,5.757997 -0.07617,9.015628 0,3.25763 0.02568,6.51292 0.07617,9.01562 0.02525,1.25135 0.05618,2.31137 0.0957,3.11133 0.01976,0.39998 0.04196,0.7319 0.07031,1.02149 0.01418,0.14479 0.0272,0.27566 0.05469,0.43554 0.02748,0.15988 -0.07856,0.21915 0.3125,0.89649 0.391051,0.67732 0.494423,0.61305 0.61914,0.71679 0.124717,0.10374 0.231305,0.18291 0.34961,0.26758 0.236609,0.16935 0.513096,0.35125 0.849609,0.56836 0.673027,0.43422 1.575407,0.99309 2.646484,1.64063 2.142156,1.29507 4.948342,2.94345 7.769532,4.57226 2.821189,1.62882 5.653056,3.23574 7.845703,4.44336 1.096323,0.60381 2.029633,1.10691 2.742187,1.47266 0.356277,0.18287 0.654956,0.32898 0.919922,0.44922 0.132483,0.0601 0.252098,0.11378 0.404297,0.16992 0.152199,0.0561 0.149534,0.17773 0.931641,0.17773 0.782106,0 0.779441,-0.12159 0.93164,-0.17773 0.1522,-0.0561 0.273767,-0.10981 0.40625,-0.16992 0.264967,-0.12024 0.561692,-0.26635 0.917969,-0.44922 0.712554,-0.36575 1.645864,-0.86885 2.742187,-1.47266 2.192643,-1.20762 5.024513,-2.81454 7.845703,-4.44336 2.82119,-1.62881 5.62933,-3.27719 7.77149,-4.57226 1.07107,-0.64754 1.97345,-1.20641 2.64648,-1.64063 0.33651,-0.21711 0.613,-0.39901 0.84961,-0.56836 0.1183,-0.0847 0.22294,-0.16384 0.34766,-0.26758 0.12471,-0.10374 0.23004,-0.0395 0.62109,-0.71679 0.39106,-0.67734 0.28306,-0.73661 0.31055,-0.89649 0.0275,-0.15988 0.0425,-0.29075 0.0566,-0.43554 0.0283,-0.28959 0.0506,-0.62151 0.0703,-1.02149 0.0395,-0.79996 0.0705,-1.85998 0.0957,-3.11133 0.0505,-2.5027 0.0742,-5.75799 0.0742,-9.01562 0,-3.257631 -0.0237,-6.512929 -0.0742,-9.015628 -0.0252,-1.251349 -0.0562,-2.311362 -0.0957,-3.111328 -0.0198,-0.399982 -0.042,-0.731899 -0.0703,-1.021484 -0.0142,-0.144793 -0.0292,-0.275669 -0.0566,-0.435547 -0.0275,-0.159878 0.0805,-0.217206 -0.31055,-0.894531 -0.39105,-0.677321 -0.49638,-0.615011 -0.62109,-0.71875 -0.12472,-0.103739 -0.22936,-0.18095 -0.34766,-0.265625 -0.23661,-0.16935 -0.5131,-0.353206 -0.84961,-0.570313 -0.67303,-0.434214 -1.57541,-0.991134 -2.64648,-1.638672 -2.14216,-1.295075 -4.9503,-2.945404 -7.77149,-4.574218 -2.82119,-1.628815 -5.65306,-3.233784 -7.845703,-4.441407 -1.096323,-0.603811 -2.029633,-1.106905 -2.742187,-1.472656 -0.356277,-0.182875 -0.653002,-0.330937 -0.917969,-0.451172 -0.132483,-0.06012 -0.254051,-0.113783 -0.40625,-0.169922 -0.152199,-0.05614 -0.149534,-0.177734 -0.93164,-0.177734 z m 0.002,4.814453 c 0.06226,0.03141 0.08565,0.04094 0.154297,0.07617 0.639084,0.328039 1.548664,0.818429 2.623046,1.410156 2.148766,1.183455 4.964883,2.779477 7.765623,4.396485 2.80074,1.617007 5.59017,3.256232 7.68946,4.52539 1.04964,0.634579 1.92957,1.178916 2.5332,1.56836 0.0647,0.04174 0.0844,0.05757 0.14258,0.0957 0.004,0.06973 0.008,0.09468 0.0117,0.171875 0.0354,0.717482 0.067,1.752209 0.0918,2.978515 0.0495,2.452614 0.0742,5.68786 0.0742,8.921878 0,3.23401 -0.0247,6.47121 -0.0742,8.92383 -0.0247,1.2263 -0.0563,2.25908 -0.0918,2.97656 -0.004,0.0772 -0.008,0.10215 -0.0117,0.17187 -0.0582,0.0381 -0.0779,0.054 -0.14258,0.0957 -0.60363,0.38944 -1.48356,0.93378 -2.5332,1.56836 -2.09929,1.26915 -4.88872,2.90838 -7.68946,4.52539 -2.80074,1.617 -5.616857,3.21498 -7.765623,4.39843 -1.074382,0.59173 -1.983962,1.08017 -2.623046,1.40821 -0.06857,0.0352 -0.0921,0.0448 -0.154297,0.0762 -0.06276,-0.0317 -0.08698,-0.0406 -0.15625,-0.0762 -0.639084,-0.32804 -1.550617,-0.81648 -2.625,-1.40821 -2.148766,-1.18345 -4.962933,-2.78143 -7.763672,-4.39843 -2.80074,-1.61701 -5.590168,-3.25624 -7.689453,-4.52539 -1.049643,-0.63458 -1.929571,-1.17892 -2.533203,-1.56836 -0.0653,-0.0421 -0.08583,-0.0573 -0.144532,-0.0957 -0.0039,-0.0697 -0.0079,-0.0947 -0.01172,-0.17187 -0.03545,-0.71748 -0.0651,-1.75026 -0.08984,-2.97656 -0.04948,-2.45262 -0.07422,-5.68982 -0.07422,-8.92383 0,-3.234018 0.02474,-6.469264 0.07422,-8.921878 0.02474,-1.226306 0.05439,-2.261032 0.08984,-2.978515 0.0038,-0.07719 0.0078,-0.10216 0.01172,-0.171875 0.0587,-0.03845 0.07923,-0.05357 0.144532,-0.0957 0.603632,-0.389444 1.48356,-0.933781 2.533203,-1.56836 2.099285,-1.269158 4.888713,-2.908383 7.689453,-4.52539 2.80074,-1.617008 5.614906,-3.21303 7.763672,-4.396485 1.074383,-0.591727 1.985916,-1.082117 2.625,-1.410156 0.06935,-0.0356 0.09343,-0.04448 0.15625,-0.07617 z"
         id="path4" />
    </g>
    <g
       id="path10675"
       style="stroke:none"
       transform="translate(23.067664,-1.383256)">
      <path
         id="path1"
         style="color:#000000;fill:#ffffff;stroke:none;stroke-linecap:round;stroke-linejoin:round;-inkscape-stroke:none"
         d="m 79.423828,87.419922 c -4.150833,0.490927 -7.64511,2.989402 -11.159383,5.042299 -0.954892,0.593732 -1.90774,1.190582 -2.854289,1.797545 3.530729,2.316006 7.18028,4.759695 11.158203,6.082034 2.876446,1.02866 6.072297,0.60487 8.800782,-0.554691 3.473158,-1.323688 6.661634,-3.256915 9.914062,-5.03125 -4.023881,-2.599375 -7.924161,-5.456491 -12.519051,-6.980156 -1.083616,-0.302478 -2.216187,-0.44688 -3.340324,-0.355781 z m 18.275391,12.429687 c -4.173225,2.392931 -8.735621,4.559121 -11.722486,8.476411 -1.914264,2.80153 -2.321713,6.26771 -2.516342,9.53896 -0.171574,2.53209 -0.205263,5.10068 -0.259219,7.65064 4.033193,-1.98427 8.259508,-3.80953 11.644067,-6.83718 1.934642,-1.88905 2.874497,-4.56942 3.057105,-7.22532 0.444002,-3.83565 0.219257,-7.85095 0.126953,-11.779292 -0.110026,0.05859 -0.220052,0.117188 -0.330078,0.175781 z m -35.828125,0.753911 c 0.06663,4.72236 -0.223867,9.55665 1.086151,14.14893 0.858523,2.65401 2.944084,4.69228 5.282859,6.10574 2.717154,1.78845 5.635069,3.25192 8.543099,4.69259 -0.108352,-4.55945 -0.03933,-9.1523 -1.183798,-13.48559 -0.875923,-3.27629 -3.420915,-5.78923 -6.19455,-7.58096 -2.394508,-1.66444 -4.968362,-3.04587 -7.529855,-4.4315 -0.0013,0.1836 -0.0026,0.36719 -0.0039,0.55079 z" />
    </g>
    <g
       aria-label="jocarsa"
       id="text1623"
       style="font-weight:bold;font-size:38.1133px;font-family:Ubuntu;-inkscape-font-specification:'Ubuntu Bold';fill:#4b0082;stroke:#000000;stroke-width:3.09606;stroke-linecap:round;stroke-linejoin:round" />
  </g>
</svg>
